<?xml version="1.0" encoding="UTF-8" standalone="no"?>
<!DOCTYPE svg PUBLIC "-//W3C//DTD SVG 1.1//EN"
 "http://www.w3.org/Graphics/SVG/1.1/DTD/svg11.dtd">
<!-- Generated by graphviz version 2.38.0 (20140413.2041)
 -->
<!-- Title: controllers_diagram Pages: 1 -->
<svg width="368pt" height="343pt"
 viewBox="0.00 0.00 367.50 342.50" xmlns="http://www.w3.org/2000/svg" xmlns:xlink="http://www.w3.org/1999/xlink">
<g id="graph0" class="graph" transform="scale(1 1) rotate(0) translate(124 218.5)">
<title>controllers_diagram</title>
<polygon fill="none" stroke="none" points="-124,124 -124,-218.5 243.5,-218.5 243.5,124 -124,124"/>
<!-- _diagram_info -->
<g id="node1" class="node"><title>_diagram_info</title>
<text text-anchor="start" x="-112" y="-18.6" font-family="Times,serif" font-size="13.00">Controllers diagram</text>
<text text-anchor="start" x="-112" y="-4.6" font-family="Times,serif" font-size="13.00">Date: Jun 22 2016 &#45; 13:23</text>
<text text-anchor="start" x="-112" y="9.4" font-family="Times,serif" font-size="13.00">Migration version: 20160616072144</text>
<text text-anchor="start" x="-112" y="23.4" font-family="Times,serif" font-size="13.00">Generated by RailRoady 1.4.2</text>
<text text-anchor="start" x="-112" y="37.4" font-family="Times,serif" font-size="13.00">http://railroady.prestonlee.com</text>
</g>
<!-- ApplicationController -->
<g id="node2" class="node"><title>ApplicationController</title>
<path fill="none" stroke="black" d="M72,-61C72,-61 188,-61 188,-61 194,-61 200,-67 200,-73 200,-73 200,-157 200,-157 200,-163 194,-169 188,-169 188,-169 72,-169 72,-169 66,-169 60,-163 60,-157 60,-157 60,-73 60,-73 60,-67 66,-61 72,-61"/>
<text text-anchor="middle" x="130" y="-153.8" font-family="Times,serif" font-size="14.00">ApplicationController</text>
<polyline fill="none" stroke="black" points="60,-146 200,-146 "/>
<text text-anchor="start" x="68" y="-130.8" font-family="Times,serif" font-size="14.00">ensure_that_logged_in</text>
<text text-anchor="start" x="68" y="-115.8" font-family="Times,serif" font-size="14.00">logged_in</text>
<polyline fill="none" stroke="black" points="60,-108 200,-108 "/>
<polyline fill="none" stroke="black" points="60,-84 200,-84 "/>
<text text-anchor="start" x="68" y="-68.8" font-family="Times,serif" font-size="14.00">_layout</text>
</g>
<!-- ChartsController -->
<g id="node3" class="node"><title>ChartsController</title>
<path fill="none" stroke="black" d="M-63.5,-76C-63.5,-76 19.5,-76 19.5,-76 25.5,-76 31.5,-82 31.5,-88 31.5,-88 31.5,-202 31.5,-202 31.5,-208 25.5,-214 19.5,-214 19.5,-214 -63.5,-214 -63.5,-214 -69.5,-214 -75.5,-208 -75.5,-202 -75.5,-202 -75.5,-88 -75.5,-88 -75.5,-82 -69.5,-76 -63.5,-76"/>
<text text-anchor="middle" x="-22" y="-198.8" font-family="Times,serif" font-size="14.00">ChartsController</text>
<polyline fill="none" stroke="black" points="-75.5,-191 31.5,-191 "/>
<text text-anchor="start" x="-67.5" y="-175.8" font-family="Times,serif" font-size="14.00">forumCharts</text>
<text text-anchor="start" x="-67.5" y="-160.8" font-family="Times,serif" font-size="14.00">gerritCharts</text>
<text text-anchor="start" x="-67.5" y="-145.8" font-family="Times,serif" font-size="14.00">gitCharts</text>
<text text-anchor="start" x="-67.5" y="-130.8" font-family="Times,serif" font-size="14.00">index</text>
<polyline fill="none" stroke="black" points="-75.5,-123 31.5,-123 "/>
<polyline fill="none" stroke="black" points="-75.5,-99 31.5,-99 "/>
<text text-anchor="start" x="-67.5" y="-83.8" font-family="Times,serif" font-size="14.00">_layout</text>
</g>
<!-- SessionsController -->
<g id="node4" class="node"><title>SessionsController</title>
<path fill="none" stroke="black" d="M132.5,119.5C132.5,119.5 227.5,119.5 227.5,119.5 233.5,119.5 239.5,113.5 239.5,107.5 239.5,107.5 239.5,8.5 239.5,8.5 239.5,2.5 233.5,-3.5 227.5,-3.5 227.5,-3.5 132.5,-3.5 132.5,-3.5 126.5,-3.5 120.5,2.5 120.5,8.5 120.5,8.5 120.5,107.5 120.5,107.5 120.5,113.5 126.5,119.5 132.5,119.5"/>
<text text-anchor="middle" x="180" y="11.7" font-family="Times,serif" font-size="14.00">SessionsController</text>
<polyline fill="none" stroke="black" points="120.5,19.5 239.5,19.5 "/>
<text text-anchor="start" x="128.5" y="34.7" font-family="Times,serif" font-size="14.00">create</text>
<text text-anchor="start" x="128.5" y="49.7" font-family="Times,serif" font-size="14.00">destroy</text>
<text text-anchor="start" x="128.5" y="64.7" font-family="Times,serif" font-size="14.00">new</text>
<polyline fill="none" stroke="black" points="120.5,72.5 239.5,72.5 "/>
<polyline fill="none" stroke="black" points="120.5,96.5 239.5,96.5 "/>
<text text-anchor="start" x="128.5" y="111.7" font-family="Times,serif" font-size="14.00">_layout</text>
</g>
</g>
</svg>
