<?xml version="1.0" encoding="UTF-8" standalone="no"?>
<!DOCTYPE svg PUBLIC "-//W3C//DTD SVG 1.1//EN"
 "http://www.w3.org/Graphics/SVG/1.1/DTD/svg11.dtd">
<!-- Generated by graphviz version 2.38.0 (20140413.2041)
 -->
<!-- Title: controllers_diagram Pages: 1 -->
<svg width="502pt" height="357pt"
 viewBox="0.00 0.00 501.70 357.04" xmlns="http://www.w3.org/2000/svg" xmlns:xlink="http://www.w3.org/1999/xlink">
<g id="graph0" class="graph" transform="scale(1 1) rotate(0) translate(143.696 157.062)">
<title>controllers_diagram</title>
<polygon fill="none" stroke="none" points="-143.696,199.981 -143.696,-157.062 358,-157.062 358,199.981 -143.696,199.981"/>
<!-- _diagram_info -->
<g id="node1" class="node"><title>_diagram_info</title>
<text text-anchor="start" x="148" y="76.4" font-family="Times,serif" font-size="13.00">Controllers diagram</text>
<text text-anchor="start" x="148" y="90.4" font-family="Times,serif" font-size="13.00">Date: Jun 07 2016 &#45; 13:59</text>
<text text-anchor="start" x="148" y="104.4" font-family="Times,serif" font-size="13.00">Migration version: 20160524101037</text>
<text text-anchor="start" x="148" y="118.4" font-family="Times,serif" font-size="13.00">Generated by RailRoady 1.4.2</text>
<text text-anchor="start" x="148" y="132.4" font-family="Times,serif" font-size="13.00">http://railroady.prestonlee.com</text>
</g>
<!-- ApplicationController -->
<g id="node2" class="node"><title>ApplicationController</title>
<path fill="none" stroke="black" d="M-127.696,45.4382C-127.696,45.4382 -11.6961,45.4382 -11.6961,45.4382 -5.69611,45.4382 0.303888,39.4382 0.303888,33.4382 0.303888,33.4382 0.303888,-140.562 0.303888,-140.562 0.303888,-146.562 -5.69611,-152.562 -11.6961,-152.562 -11.6961,-152.562 -127.696,-152.562 -127.696,-152.562 -133.696,-152.562 -139.696,-146.562 -139.696,-140.562 -139.696,-140.562 -139.696,33.4382 -139.696,33.4382 -139.696,39.4382 -133.696,45.4382 -127.696,45.4382"/>
<text text-anchor="middle" x="-69.6961" y="-137.362" font-family="Times,serif" font-size="14.00">ApplicationController</text>
<polyline fill="none" stroke="black" points="-139.696,-129.562 0.303888,-129.562 "/>
<text text-anchor="start" x="-131.696" y="-114.362" font-family="Times,serif" font-size="14.00">activity</text>
<text text-anchor="start" x="-131.696" y="-99.3618" font-family="Times,serif" font-size="14.00">authors</text>
<text text-anchor="start" x="-131.696" y="-84.3618" font-family="Times,serif" font-size="14.00">ensure_that_logged_in</text>
<text text-anchor="start" x="-131.696" y="-69.3618" font-family="Times,serif" font-size="14.00">files</text>
<text text-anchor="start" x="-131.696" y="-54.3618" font-family="Times,serif" font-size="14.00">index</text>
<text text-anchor="start" x="-131.696" y="-39.3618" font-family="Times,serif" font-size="14.00">lines</text>
<text text-anchor="start" x="-131.696" y="-24.3618" font-family="Times,serif" font-size="14.00">logged_in</text>
<text text-anchor="start" x="-131.696" y="-9.36177" font-family="Times,serif" font-size="14.00">tags</text>
<polyline fill="none" stroke="black" points="-139.696,-1.56177 0.303888,-1.56177 "/>
<polyline fill="none" stroke="black" points="-139.696,22.4382 0.303888,22.4382 "/>
<text text-anchor="start" x="-131.696" y="37.6382" font-family="Times,serif" font-size="14.00">_layout</text>
</g>
<!-- ChartsController -->
<g id="node3" class="node"><title>ChartsController</title>
<path fill="none" stroke="black" d="M43.8448,-22.1009C43.8448,-22.1009 126.845,-22.1009 126.845,-22.1009 132.845,-22.1009 138.845,-28.1009 138.845,-34.1009 138.845,-34.1009 138.845,-133.101 138.845,-133.101 138.845,-139.101 132.845,-145.101 126.845,-145.101 126.845,-145.101 43.8448,-145.101 43.8448,-145.101 37.8448,-145.101 31.8448,-139.101 31.8448,-133.101 31.8448,-133.101 31.8448,-34.1009 31.8448,-34.1009 31.8448,-28.1009 37.8448,-22.1009 43.8448,-22.1009"/>
<text text-anchor="middle" x="85.3448" y="-129.901" font-family="Times,serif" font-size="14.00">ChartsController</text>
<polyline fill="none" stroke="black" points="31.8448,-122.101 138.845,-122.101 "/>
<text text-anchor="start" x="39.8448" y="-106.901" font-family="Times,serif" font-size="14.00">forumCharts</text>
<text text-anchor="start" x="39.8448" y="-91.9009" font-family="Times,serif" font-size="14.00">gitCharts</text>
<text text-anchor="start" x="39.8448" y="-76.9009" font-family="Times,serif" font-size="14.00">index</text>
<polyline fill="none" stroke="black" points="31.8448,-69.1009 138.845,-69.1009 "/>
<polyline fill="none" stroke="black" points="31.8448,-45.1009 138.845,-45.1009 "/>
<text text-anchor="start" x="39.8448" y="-29.9009" font-family="Times,serif" font-size="14.00">_layout</text>
</g>
<!-- ApplicationController&#45;&gt;ChartsController -->
<g id="edge1" class="edge"><title>ApplicationController&#45;&gt;ChartsController</title>
<path fill="none" stroke="black" d="M0.566285,-67.1751C10.982,-69.1931 21.574,-71.2453 31.5813,-73.1843"/>
</g>
<!-- SessionsController -->
<g id="node4" class="node"><title>SessionsController</title>
<path fill="none" stroke="black" d="M-22.9263,195.481C-22.9263,195.481 72.0737,195.481 72.0737,195.481 78.0737,195.481 84.0737,189.481 84.0737,183.481 84.0737,183.481 84.0737,84.4809 84.0737,84.4809 84.0737,78.4809 78.0737,72.4809 72.0737,72.4809 72.0737,72.4809 -22.9263,72.4809 -22.9263,72.4809 -28.9263,72.4809 -34.9263,78.4809 -34.9263,84.4809 -34.9263,84.4809 -34.9263,183.481 -34.9263,183.481 -34.9263,189.481 -28.9263,195.481 -22.9263,195.481"/>
<text text-anchor="middle" x="24.5737" y="87.6809" font-family="Times,serif" font-size="14.00">SessionsController</text>
<polyline fill="none" stroke="black" points="-34.9263,95.4809 84.0737,95.4809 "/>
<text text-anchor="start" x="-26.9263" y="110.681" font-family="Times,serif" font-size="14.00">create</text>
<text text-anchor="start" x="-26.9263" y="125.681" font-family="Times,serif" font-size="14.00">destroy</text>
<text text-anchor="start" x="-26.9263" y="140.681" font-family="Times,serif" font-size="14.00">new</text>
<polyline fill="none" stroke="black" points="-34.9263,148.481 84.0737,148.481 "/>
<polyline fill="none" stroke="black" points="-34.9263,172.481 84.0737,172.481 "/>
<text text-anchor="start" x="-26.9263" y="187.681" font-family="Times,serif" font-size="14.00">_layout</text>
</g>
<!-- ApplicationController&#45;&gt;SessionsController -->
<g id="edge2" class="edge"><title>ApplicationController&#45;&gt;SessionsController</title>
<path fill="none" stroke="black" d="M-19.8008,45.7012C-15.2518,54.751 -10.7373,63.7324 -6.42737,72.3066"/>
</g>
</g>
</svg>
