<?xml version="1.0" encoding="UTF-8" standalone="no"?>
<!DOCTYPE svg PUBLIC "-//W3C//DTD SVG 1.1//EN"
 "http://www.w3.org/Graphics/SVG/1.1/DTD/svg11.dtd">
<!-- Generated by graphviz version 2.38.0 (20140413.2041)
 -->
<!-- Title: models_diagram Pages: 1 -->
<svg width="1098pt" height="836pt"
 viewBox="0.00 0.00 1098.00 836.00" xmlns="http://www.w3.org/2000/svg" xmlns:xlink="http://www.w3.org/1999/xlink">
<g id="graph0" class="graph" transform="scale(1 1) rotate(0) translate(4 832)">
<title>models_diagram</title>
<polygon fill="none" stroke="none" points="-4,4 -4,-832 1094,-832 1094,4 -4,4"/>
<!-- _diagram_info -->
<g id="node1" class="node"><title>_diagram_info</title>
<text text-anchor="start" x="8" y="-694.1" font-family="Times,serif" font-size="13.00">Models diagram</text>
<text text-anchor="start" x="8" y="-680.1" font-family="Times,serif" font-size="13.00">Date: Jun 22 2016 &#45; 13:23</text>
<text text-anchor="start" x="8" y="-666.1" font-family="Times,serif" font-size="13.00">Migration version: 20160616072144</text>
<text text-anchor="start" x="8" y="-652.1" font-family="Times,serif" font-size="13.00">Generated by RailRoady 1.4.2</text>
<text text-anchor="start" x="8" y="-638.1" font-family="Times,serif" font-size="13.00">http://railroady.prestonlee.com</text>
</g>
<!-- Post -->
<g id="node2" class="node"><title>Post</title>
<path fill="none" stroke="black" d="M254.5,-226C254.5,-226 361.5,-226 361.5,-226 367.5,-226 373.5,-232 373.5,-238 373.5,-238 373.5,-440 373.5,-440 373.5,-446 367.5,-452 361.5,-452 361.5,-452 254.5,-452 254.5,-452 248.5,-452 242.5,-446 242.5,-440 242.5,-440 242.5,-238 242.5,-238 242.5,-232 248.5,-226 254.5,-226"/>
<text text-anchor="middle" x="308" y="-436.8" font-family="Times,serif" font-size="14.00">Post</text>
<polyline fill="none" stroke="black" points="242.5,-429 373.5,-429 "/>
<text text-anchor="start" x="250.5" y="-413.8" font-family="Times,serif" font-size="14.00">id :INTEGER</text>
<text text-anchor="start" x="250.5" y="-398.8" font-family="Times,serif" font-size="14.00">pid :integer</text>
<text text-anchor="start" x="250.5" y="-383.8" font-family="Times,serif" font-size="14.00">uid :integer</text>
<text text-anchor="start" x="250.5" y="-368.8" font-family="Times,serif" font-size="14.00">tid :integer</text>
<text text-anchor="start" x="250.5" y="-353.8" font-family="Times,serif" font-size="14.00">content :varchar</text>
<text text-anchor="start" x="250.5" y="-338.8" font-family="Times,serif" font-size="14.00">timestamp :varchar</text>
<text text-anchor="start" x="250.5" y="-323.8" font-family="Times,serif" font-size="14.00">reputation :integer</text>
<text text-anchor="start" x="250.5" y="-308.8" font-family="Times,serif" font-size="14.00">votes :integer</text>
<text text-anchor="start" x="250.5" y="-293.8" font-family="Times,serif" font-size="14.00">edited :varchar</text>
<text text-anchor="start" x="250.5" y="-278.8" font-family="Times,serif" font-size="14.00">deleted :boolean</text>
<text text-anchor="start" x="250.5" y="-263.8" font-family="Times,serif" font-size="14.00">index :integer</text>
<text text-anchor="start" x="250.5" y="-248.8" font-family="Times,serif" font-size="14.00">created_at :datetime</text>
<text text-anchor="start" x="250.5" y="-233.8" font-family="Times,serif" font-size="14.00">updated_at :datetime</text>
</g>
<!-- Repository -->
<g id="node3" class="node"><title>Repository</title>
<path fill="none" stroke="black" d="M414.5,-624C414.5,-624 521.5,-624 521.5,-624 527.5,-624 533.5,-630 533.5,-636 533.5,-636 533.5,-703 533.5,-703 533.5,-709 527.5,-715 521.5,-715 521.5,-715 414.5,-715 414.5,-715 408.5,-715 402.5,-709 402.5,-703 402.5,-703 402.5,-636 402.5,-636 402.5,-630 408.5,-624 414.5,-624"/>
<text text-anchor="middle" x="468" y="-699.8" font-family="Times,serif" font-size="14.00">Repository</text>
<polyline fill="none" stroke="black" points="402.5,-692 533.5,-692 "/>
<text text-anchor="start" x="410.5" y="-676.8" font-family="Times,serif" font-size="14.00">id :INTEGER</text>
<text text-anchor="start" x="410.5" y="-661.8" font-family="Times,serif" font-size="14.00">name :varchar</text>
<text text-anchor="start" x="410.5" y="-646.8" font-family="Times,serif" font-size="14.00">created_at :datetime</text>
<text text-anchor="start" x="410.5" y="-631.8" font-family="Times,serif" font-size="14.00">updated_at :datetime</text>
</g>
<!-- Commit -->
<g id="node6" class="node"><title>Commit</title>
<path fill="none" stroke="black" d="M487,-271C487,-271 597,-271 597,-271 603,-271 609,-277 609,-283 609,-283 609,-395 609,-395 609,-401 603,-407 597,-407 597,-407 487,-407 487,-407 481,-407 475,-401 475,-395 475,-395 475,-283 475,-283 475,-277 481,-271 487,-271"/>
<text text-anchor="middle" x="542" y="-391.8" font-family="Times,serif" font-size="14.00">Commit</text>
<polyline fill="none" stroke="black" points="475,-384 609,-384 "/>
<text text-anchor="start" x="483" y="-368.8" font-family="Times,serif" font-size="14.00">id :INTEGER</text>
<text text-anchor="start" x="483" y="-353.8" font-family="Times,serif" font-size="14.00">repository_id :integer</text>
<text text-anchor="start" x="483" y="-338.8" font-family="Times,serif" font-size="14.00">author_id :integer</text>
<text text-anchor="start" x="483" y="-323.8" font-family="Times,serif" font-size="14.00">sha :varchar</text>
<text text-anchor="start" x="483" y="-308.8" font-family="Times,serif" font-size="14.00">stamp :integer</text>
<text text-anchor="start" x="483" y="-293.8" font-family="Times,serif" font-size="14.00">created_at :datetime</text>
<text text-anchor="start" x="483" y="-278.8" font-family="Times,serif" font-size="14.00">updated_at :datetime</text>
</g>
<!-- Repository&#45;&gt;Commit -->
<g id="edge1" class="edge"><title>Repository&#45;&gt;Commit</title>
<path fill="none" stroke="#10c41a" d="M479.885,-615.74C491.986,-562.023 510.874,-478.174 524.647,-417.034"/>
<ellipse fill="none" stroke="#10c41a" cx="478.936" cy="-619.953" rx="4.00001" ry="4.00001"/>
<polygon fill="#10c41a" stroke="#10c41a" points="524.7,-416.799 531.287,-408.033 525.798,-411.921 526.897,-407.044 526.897,-407.044 526.897,-407.044 525.798,-411.921 522.507,-406.055 524.7,-416.799 524.7,-416.799"/>
</g>
<!-- GerritCodeReview -->
<g id="node4" class="node"><title>GerritCodeReview</title>
<path fill="none" stroke="black" d="M532,-15.5C532,-15.5 698,-15.5 698,-15.5 704,-15.5 710,-21.5 710,-27.5 710,-27.5 710,-139.5 710,-139.5 710,-145.5 704,-151.5 698,-151.5 698,-151.5 532,-151.5 532,-151.5 526,-151.5 520,-145.5 520,-139.5 520,-139.5 520,-27.5 520,-27.5 520,-21.5 526,-15.5 532,-15.5"/>
<text text-anchor="middle" x="615" y="-136.3" font-family="Times,serif" font-size="14.00">GerritCodeReview</text>
<polyline fill="none" stroke="black" points="520,-128.5 710,-128.5 "/>
<text text-anchor="start" x="528" y="-113.3" font-family="Times,serif" font-size="14.00">id :INTEGER</text>
<text text-anchor="start" x="528" y="-98.3" font-family="Times,serif" font-size="14.00">change_id_from_gerrit :varchar</text>
<text text-anchor="start" x="528" y="-83.3" font-family="Times,serif" font-size="14.00">gerrit_change_id :integer</text>
<text text-anchor="start" x="528" y="-68.3" font-family="Times,serif" font-size="14.00">gerrit_owner_id :integer</text>
<text text-anchor="start" x="528" y="-53.3" font-family="Times,serif" font-size="14.00">value :integer</text>
<text text-anchor="start" x="528" y="-38.3" font-family="Times,serif" font-size="14.00">created_at :datetime</text>
<text text-anchor="start" x="528" y="-23.3" font-family="Times,serif" font-size="14.00">updated_at :datetime</text>
</g>
<!-- Topic -->
<g id="node5" class="node"><title>Topic</title>
<path fill="none" stroke="black" d="M244,-511.5C244,-511.5 372,-511.5 372,-511.5 378,-511.5 384,-517.5 384,-523.5 384,-523.5 384,-815.5 384,-815.5 384,-821.5 378,-827.5 372,-827.5 372,-827.5 244,-827.5 244,-827.5 238,-827.5 232,-821.5 232,-815.5 232,-815.5 232,-523.5 232,-523.5 232,-517.5 238,-511.5 244,-511.5"/>
<text text-anchor="middle" x="308" y="-812.3" font-family="Times,serif" font-size="14.00">Topic</text>
<polyline fill="none" stroke="black" points="232,-804.5 384,-804.5 "/>
<text text-anchor="start" x="240" y="-789.3" font-family="Times,serif" font-size="14.00">id :INTEGER</text>
<text text-anchor="start" x="240" y="-774.3" font-family="Times,serif" font-size="14.00">tid :integer</text>
<text text-anchor="start" x="240" y="-759.3" font-family="Times,serif" font-size="14.00">uid :integer</text>
<text text-anchor="start" x="240" y="-744.3" font-family="Times,serif" font-size="14.00">cid :integer</text>
<text text-anchor="start" x="240" y="-729.3" font-family="Times,serif" font-size="14.00">mainPid :integer</text>
<text text-anchor="start" x="240" y="-714.3" font-family="Times,serif" font-size="14.00">title :varchar</text>
<text text-anchor="start" x="240" y="-699.3" font-family="Times,serif" font-size="14.00">slug :varchar</text>
<text text-anchor="start" x="240" y="-684.3" font-family="Times,serif" font-size="14.00">timestamp :varchar</text>
<text text-anchor="start" x="240" y="-669.3" font-family="Times,serif" font-size="14.00">lastposttime :varchar</text>
<text text-anchor="start" x="240" y="-654.3" font-family="Times,serif" font-size="14.00">postcount :integer</text>
<text text-anchor="start" x="240" y="-639.3" font-family="Times,serif" font-size="14.00">viewcount :integer</text>
<text text-anchor="start" x="240" y="-624.3" font-family="Times,serif" font-size="14.00">locked :boolean</text>
<text text-anchor="start" x="240" y="-609.3" font-family="Times,serif" font-size="14.00">pinned :boolean</text>
<text text-anchor="start" x="240" y="-594.3" font-family="Times,serif" font-size="14.00">isQuestion :integer</text>
<text text-anchor="start" x="240" y="-579.3" font-family="Times,serif" font-size="14.00">isSolved :integer</text>
<text text-anchor="start" x="240" y="-564.3" font-family="Times,serif" font-size="14.00">relativeTime :varchar</text>
<text text-anchor="start" x="240" y="-549.3" font-family="Times,serif" font-size="14.00">lastposttimeISO :varchar</text>
<text text-anchor="start" x="240" y="-534.3" font-family="Times,serif" font-size="14.00">created_at :datetime</text>
<text text-anchor="start" x="240" y="-519.3" font-family="Times,serif" font-size="14.00">updated_at :datetime</text>
</g>
<!-- Topic&#45;&gt;Post -->
<g id="edge2" class="edge"><title>Topic&#45;&gt;Post</title>
<path fill="none" stroke="#2fa725" d="M308,-503.04C308,-489.36 308,-475.691 308,-462.413"/>
<ellipse fill="none" stroke="#2fa725" cx="308" cy="-507.466" rx="4" ry="4"/>
<polygon fill="#2fa725" stroke="#2fa725" points="308,-462.341 312.5,-452.341 308,-457.341 308,-452.341 308,-452.341 308,-452.341 308,-457.341 303.5,-452.341 308,-462.341 308,-462.341"/>
</g>
<!-- GerritMessage -->
<g id="node7" class="node"><title>GerritMessage</title>
<path fill="none" stroke="black" d="M740,-0.5C740,-0.5 870,-0.5 870,-0.5 876,-0.5 882,-6.5 882,-12.5 882,-12.5 882,-154.5 882,-154.5 882,-160.5 876,-166.5 870,-166.5 870,-166.5 740,-166.5 740,-166.5 734,-166.5 728,-160.5 728,-154.5 728,-154.5 728,-12.5 728,-12.5 728,-6.5 734,-0.5 740,-0.5"/>
<text text-anchor="middle" x="805" y="-151.3" font-family="Times,serif" font-size="14.00">GerritMessage</text>
<polyline fill="none" stroke="black" points="728,-143.5 882,-143.5 "/>
<text text-anchor="start" x="736" y="-128.3" font-family="Times,serif" font-size="14.00">id :INTEGER</text>
<text text-anchor="start" x="736" y="-113.3" font-family="Times,serif" font-size="14.00">message_id :varchar</text>
<text text-anchor="start" x="736" y="-98.3" font-family="Times,serif" font-size="14.00">date :varchar</text>
<text text-anchor="start" x="736" y="-83.3" font-family="Times,serif" font-size="14.00">message :varchar</text>
<text text-anchor="start" x="736" y="-68.3" font-family="Times,serif" font-size="14.00">revision_number :integer</text>
<text text-anchor="start" x="736" y="-53.3" font-family="Times,serif" font-size="14.00">gerrit_owner_id :integer</text>
<text text-anchor="start" x="736" y="-38.3" font-family="Times,serif" font-size="14.00">gerrit_change_id :integer</text>
<text text-anchor="start" x="736" y="-23.3" font-family="Times,serif" font-size="14.00">created_at :datetime</text>
<text text-anchor="start" x="736" y="-8.3" font-family="Times,serif" font-size="14.00">updated_at :datetime</text>
</g>
<!-- Author -->
<g id="node8" class="node"><title>Author</title>
<path fill="none" stroke="black" d="M563.5,-609C563.5,-609 670.5,-609 670.5,-609 676.5,-609 682.5,-615 682.5,-621 682.5,-621 682.5,-718 682.5,-718 682.5,-724 676.5,-730 670.5,-730 670.5,-730 563.5,-730 563.5,-730 557.5,-730 551.5,-724 551.5,-718 551.5,-718 551.5,-621 551.5,-621 551.5,-615 557.5,-609 563.5,-609"/>
<text text-anchor="middle" x="617" y="-714.8" font-family="Times,serif" font-size="14.00">Author</text>
<polyline fill="none" stroke="black" points="551.5,-707 682.5,-707 "/>
<text text-anchor="start" x="559.5" y="-691.8" font-family="Times,serif" font-size="14.00">id :INTEGER</text>
<text text-anchor="start" x="559.5" y="-676.8" font-family="Times,serif" font-size="14.00">name :varchar</text>
<text text-anchor="start" x="559.5" y="-661.8" font-family="Times,serif" font-size="14.00">email :varchar</text>
<text text-anchor="start" x="559.5" y="-646.8" font-family="Times,serif" font-size="14.00">linked_id :integer</text>
<text text-anchor="start" x="559.5" y="-631.8" font-family="Times,serif" font-size="14.00">created_at :datetime</text>
<text text-anchor="start" x="559.5" y="-616.8" font-family="Times,serif" font-size="14.00">updated_at :datetime</text>
</g>
<!-- Author&#45;&gt;Commit -->
<g id="edge3" class="edge"><title>Author&#45;&gt;Commit</title>
<path fill="none" stroke="#5e4c40" d="M601.542,-600.793C589.331,-547.311 572.287,-472.659 559.562,-416.922"/>
<ellipse fill="none" stroke="#5e4c40" cx="602.441" cy="-604.73" rx="4.00001" ry="4.00001"/>
<polygon fill="#5e4c40" stroke="#5e4c40" points="559.545,-416.845 561.706,-406.095 558.432,-411.971 557.319,-407.096 557.319,-407.096 557.319,-407.096 558.432,-411.971 552.932,-408.098 559.545,-416.845 559.545,-416.845"/>
</g>
<!-- GerritOwner -->
<g id="node9" class="node"><title>GerritOwner</title>
<path fill="none" stroke="black" d="M809.5,-609C809.5,-609 916.5,-609 916.5,-609 922.5,-609 928.5,-615 928.5,-621 928.5,-621 928.5,-718 928.5,-718 928.5,-724 922.5,-730 916.5,-730 916.5,-730 809.5,-730 809.5,-730 803.5,-730 797.5,-724 797.5,-718 797.5,-718 797.5,-621 797.5,-621 797.5,-615 803.5,-609 809.5,-609"/>
<text text-anchor="middle" x="863" y="-714.8" font-family="Times,serif" font-size="14.00">GerritOwner</text>
<polyline fill="none" stroke="black" points="797.5,-707 928.5,-707 "/>
<text text-anchor="start" x="805.5" y="-691.8" font-family="Times,serif" font-size="14.00">id :INTEGER</text>
<text text-anchor="start" x="805.5" y="-676.8" font-family="Times,serif" font-size="14.00">account_id :integer</text>
<text text-anchor="start" x="805.5" y="-661.8" font-family="Times,serif" font-size="14.00">name :varchar</text>
<text text-anchor="start" x="805.5" y="-646.8" font-family="Times,serif" font-size="14.00">email :varchar</text>
<text text-anchor="start" x="805.5" y="-631.8" font-family="Times,serif" font-size="14.00">created_at :datetime</text>
<text text-anchor="start" x="805.5" y="-616.8" font-family="Times,serif" font-size="14.00">updated_at :datetime</text>
</g>
<!-- GerritOwner&#45;&gt;GerritCodeReview -->
<g id="edge5" class="edge"><title>GerritOwner&#45;&gt;GerritCodeReview</title>
<path fill="none" stroke="#3feec8" d="M790.941,-612.209C751.186,-577.111 704.616,-528.526 678,-475 651.348,-421.403 631.78,-259.715 622.007,-162.007"/>
<ellipse fill="none" stroke="#3feec8" cx="794.245" cy="-615.094" rx="4.00002" ry="4.00002"/>
<polygon fill="#3feec8" stroke="#3feec8" points="621.99,-161.833 625.485,-151.439 621.498,-156.857 621.006,-151.881 621.006,-151.881 621.006,-151.881 621.498,-156.857 616.528,-152.324 621.99,-161.833 621.99,-161.833"/>
</g>
<!-- GerritOwner&#45;&gt;GerritMessage -->
<g id="edge7" class="edge"><title>GerritOwner&#45;&gt;GerritMessage</title>
<path fill="none" stroke="#a27dd0" d="M866.407,-600.699C869.625,-509.477 870.697,-342.555 845,-203 843.383,-194.218 841.253,-185.2 838.817,-176.247"/>
<ellipse fill="none" stroke="#a27dd0" cx="866.258" cy="-604.751" rx="4" ry="4"/>
<polygon fill="#a27dd0" stroke="#a27dd0" points="838.801,-176.191 840.391,-165.341 837.432,-171.382 836.063,-166.573 836.063,-166.573 836.063,-166.573 837.432,-171.382 831.735,-167.805 838.801,-176.191 838.801,-176.191"/>
</g>
<!-- GerritChange -->
<g id="node10" class="node"><title>GerritChange</title>
<path fill="none" stroke="black" d="M698.5,-203.5C698.5,-203.5 823.5,-203.5 823.5,-203.5 829.5,-203.5 835.5,-209.5 835.5,-215.5 835.5,-215.5 835.5,-462.5 835.5,-462.5 835.5,-468.5 829.5,-474.5 823.5,-474.5 823.5,-474.5 698.5,-474.5 698.5,-474.5 692.5,-474.5 686.5,-468.5 686.5,-462.5 686.5,-462.5 686.5,-215.5 686.5,-215.5 686.5,-209.5 692.5,-203.5 698.5,-203.5"/>
<text text-anchor="middle" x="761" y="-459.3" font-family="Times,serif" font-size="14.00">GerritChange</text>
<polyline fill="none" stroke="black" points="686.5,-451.5 835.5,-451.5 "/>
<text text-anchor="start" x="694.5" y="-436.3" font-family="Times,serif" font-size="14.00">id :INTEGER</text>
<text text-anchor="start" x="694.5" y="-421.3" font-family="Times,serif" font-size="14.00">kind :varchar</text>
<text text-anchor="start" x="694.5" y="-406.3" font-family="Times,serif" font-size="14.00">id_from_gerrit :varchar</text>
<text text-anchor="start" x="694.5" y="-391.3" font-family="Times,serif" font-size="14.00">project :varchar</text>
<text text-anchor="start" x="694.5" y="-376.3" font-family="Times,serif" font-size="14.00">branch :varchar</text>
<text text-anchor="start" x="694.5" y="-361.3" font-family="Times,serif" font-size="14.00">change_id :varchar</text>
<text text-anchor="start" x="694.5" y="-346.3" font-family="Times,serif" font-size="14.00">subject :varchar</text>
<text text-anchor="start" x="694.5" y="-331.3" font-family="Times,serif" font-size="14.00">status :varchar</text>
<text text-anchor="start" x="694.5" y="-316.3" font-family="Times,serif" font-size="14.00">created :varchar</text>
<text text-anchor="start" x="694.5" y="-301.3" font-family="Times,serif" font-size="14.00">updated :varchar</text>
<text text-anchor="start" x="694.5" y="-286.3" font-family="Times,serif" font-size="14.00">mergeable :boolean</text>
<text text-anchor="start" x="694.5" y="-271.3" font-family="Times,serif" font-size="14.00">sortkey :varchar</text>
<text text-anchor="start" x="694.5" y="-256.3" font-family="Times,serif" font-size="14.00">number :integer</text>
<text text-anchor="start" x="694.5" y="-241.3" font-family="Times,serif" font-size="14.00">gerrit_owner_id :integer</text>
<text text-anchor="start" x="694.5" y="-226.3" font-family="Times,serif" font-size="14.00">created_at :datetime</text>
<text text-anchor="start" x="694.5" y="-211.3" font-family="Times,serif" font-size="14.00">updated_at :datetime</text>
</g>
<!-- GerritOwner&#45;&gt;GerritChange -->
<g id="edge6" class="edge"><title>GerritOwner&#45;&gt;GerritChange</title>
<path fill="none" stroke="#d63026" d="M841.9,-600.547C831.441,-566.862 818.388,-524.822 805.839,-484.409"/>
<ellipse fill="none" stroke="#d63026" cx="843.224" cy="-604.81" rx="4.00001" ry="4.00001"/>
<polygon fill="#d63026" stroke="#d63026" points="805.798,-484.276 807.13,-473.391 804.315,-479.501 802.833,-474.726 802.833,-474.726 802.833,-474.726 804.315,-479.501 798.535,-476.06 805.798,-484.276 805.798,-484.276"/>
</g>
<!-- GerritSanityReview -->
<g id="node12" class="node"><title>GerritSanityReview</title>
<path fill="none" stroke="black" d="M912,-15.5C912,-15.5 1078,-15.5 1078,-15.5 1084,-15.5 1090,-21.5 1090,-27.5 1090,-27.5 1090,-139.5 1090,-139.5 1090,-145.5 1084,-151.5 1078,-151.5 1078,-151.5 912,-151.5 912,-151.5 906,-151.5 900,-145.5 900,-139.5 900,-139.5 900,-27.5 900,-27.5 900,-21.5 906,-15.5 912,-15.5"/>
<text text-anchor="middle" x="995" y="-136.3" font-family="Times,serif" font-size="14.00">GerritSanityReview</text>
<polyline fill="none" stroke="black" points="900,-128.5 1090,-128.5 "/>
<text text-anchor="start" x="908" y="-113.3" font-family="Times,serif" font-size="14.00">id :INTEGER</text>
<text text-anchor="start" x="908" y="-98.3" font-family="Times,serif" font-size="14.00">change_id_from_gerrit :varchar</text>
<text text-anchor="start" x="908" y="-83.3" font-family="Times,serif" font-size="14.00">gerrit_change_id :integer</text>
<text text-anchor="start" x="908" y="-68.3" font-family="Times,serif" font-size="14.00">gerrit_owner_id :integer</text>
<text text-anchor="start" x="908" y="-53.3" font-family="Times,serif" font-size="14.00">value :integer</text>
<text text-anchor="start" x="908" y="-38.3" font-family="Times,serif" font-size="14.00">created_at :datetime</text>
<text text-anchor="start" x="908" y="-23.3" font-family="Times,serif" font-size="14.00">updated_at :datetime</text>
</g>
<!-- GerritOwner&#45;&gt;GerritSanityReview -->
<g id="edge4" class="edge"><title>GerritOwner&#45;&gt;GerritSanityReview</title>
<path fill="none" stroke="#4e1a5b" d="M878.293,-600.841C903.006,-491.506 951.572,-276.636 977.581,-161.565"/>
<ellipse fill="none" stroke="#4e1a5b" cx="877.388" cy="-604.845" rx="4.00001" ry="4.00001"/>
<polygon fill="#4e1a5b" stroke="#4e1a5b" points="977.592,-161.517 984.186,-152.755 978.694,-156.64 979.797,-151.763 979.797,-151.763 979.797,-151.763 978.694,-156.64 975.407,-150.771 977.592,-161.517 977.592,-161.517"/>
</g>
<!-- GerritChange&#45;&gt;GerritCodeReview -->
<g id="edge10" class="edge"><title>GerritChange&#45;&gt;GerritCodeReview</title>
<path fill="none" stroke="#0030ad" d="M682.058,-200.933C674.049,-187.028 666.137,-173.289 658.709,-160.392"/>
<ellipse fill="none" stroke="#0030ad" cx="684.293" cy="-204.813" rx="4.00002" ry="4.00002"/>
<polygon fill="#0030ad" stroke="#0030ad" points="658.64,-160.272 657.549,-149.361 656.145,-155.94 653.649,-151.607 653.649,-151.607 653.649,-151.607 656.145,-155.94 649.75,-153.853 658.64,-160.272 658.64,-160.272"/>
</g>
<!-- GerritChange&#45;&gt;GerritMessage -->
<g id="edge8" class="edge"><title>GerritChange&#45;&gt;GerritMessage</title>
<path fill="none" stroke="#77582a" d="M785.729,-195.526C786.826,-189.209 787.913,-182.945 788.98,-176.799"/>
<ellipse fill="none" stroke="#77582a" cx="785.037" cy="-199.515" rx="4.00001" ry="4.00001"/>
<polygon fill="#77582a" stroke="#77582a" points="789.044,-176.428 795.188,-167.345 789.899,-171.502 790.754,-166.576 790.754,-166.576 790.754,-166.576 789.899,-171.502 786.32,-165.806 789.044,-176.428 789.044,-176.428"/>
</g>
<!-- GerritChange&#45;&gt;GerritSanityReview -->
<g id="edge9" class="edge"><title>GerritChange&#45;&gt;GerritSanityReview</title>
<path fill="none" stroke="#e15b0a" d="M841.23,-251.084C868.718,-221.305 899.221,-188.261 925.764,-159.506"/>
<ellipse fill="none" stroke="#e15b0a" cx="838.396" cy="-254.155" rx="4.00002" ry="4.00002"/>
<polygon fill="#e15b0a" stroke="#e15b0a" points="925.997,-159.253 936.086,-154.958 929.388,-155.579 932.78,-151.905 932.78,-151.905 932.78,-151.905 929.388,-155.579 929.473,-148.853 925.997,-159.253 925.997,-159.253"/>
</g>
<!-- User -->
<g id="node11" class="node"><title>User</title>
<path fill="none" stroke="black" d="M958.5,-541.5C958.5,-541.5 1065.5,-541.5 1065.5,-541.5 1071.5,-541.5 1077.5,-547.5 1077.5,-553.5 1077.5,-553.5 1077.5,-785.5 1077.5,-785.5 1077.5,-791.5 1071.5,-797.5 1065.5,-797.5 1065.5,-797.5 958.5,-797.5 958.5,-797.5 952.5,-797.5 946.5,-791.5 946.5,-785.5 946.5,-785.5 946.5,-553.5 946.5,-553.5 946.5,-547.5 952.5,-541.5 958.5,-541.5"/>
<text text-anchor="middle" x="1012" y="-782.3" font-family="Times,serif" font-size="14.00">User</text>
<polyline fill="none" stroke="black" points="946.5,-774.5 1077.5,-774.5 "/>
<text text-anchor="start" x="954.5" y="-759.3" font-family="Times,serif" font-size="14.00">id :INTEGER</text>
<text text-anchor="start" x="954.5" y="-744.3" font-family="Times,serif" font-size="14.00">username :varchar</text>
<text text-anchor="start" x="954.5" y="-729.3" font-family="Times,serif" font-size="14.00">userslug :varchar</text>
<text text-anchor="start" x="954.5" y="-714.3" font-family="Times,serif" font-size="14.00">email :varchar</text>
<text text-anchor="start" x="954.5" y="-699.3" font-family="Times,serif" font-size="14.00">picture :varchar</text>
<text text-anchor="start" x="954.5" y="-684.3" font-family="Times,serif" font-size="14.00">fullname :varchar</text>
<text text-anchor="start" x="954.5" y="-669.3" font-family="Times,serif" font-size="14.00">signature :varchar</text>
<text text-anchor="start" x="954.5" y="-654.3" font-family="Times,serif" font-size="14.00">reputation :integer</text>
<text text-anchor="start" x="954.5" y="-639.3" font-family="Times,serif" font-size="14.00">postcount :integer</text>
<text text-anchor="start" x="954.5" y="-624.3" font-family="Times,serif" font-size="14.00">banned :boolean</text>
<text text-anchor="start" x="954.5" y="-609.3" font-family="Times,serif" font-size="14.00">status :varchar</text>
<text text-anchor="start" x="954.5" y="-594.3" font-family="Times,serif" font-size="14.00">uid :integer</text>
<text text-anchor="start" x="954.5" y="-579.3" font-family="Times,serif" font-size="14.00">lastonline :varchar</text>
<text text-anchor="start" x="954.5" y="-564.3" font-family="Times,serif" font-size="14.00">created_at :datetime</text>
<text text-anchor="start" x="954.5" y="-549.3" font-family="Times,serif" font-size="14.00">updated_at :datetime</text>
</g>
</g>
</svg>
