<?xml version="1.0" encoding="UTF-8" standalone="no"?>
<!DOCTYPE svg PUBLIC "-//W3C//DTD SVG 1.1//EN"
 "http://www.w3.org/Graphics/SVG/1.1/DTD/svg11.dtd">
<!-- Generated by graphviz version 2.38.0 (20140413.2041)
 -->
<!-- Title: models_diagram Pages: 1 -->
<svg width="547pt" height="702pt"
 viewBox="0.00 0.00 546.50 702.00" xmlns="http://www.w3.org/2000/svg" xmlns:xlink="http://www.w3.org/1999/xlink">
<g id="graph0" class="graph" transform="scale(1 1) rotate(0) translate(4 698)">
<title>models_diagram</title>
<polygon fill="none" stroke="none" points="-4,4 -4,-698 542.5,-698 542.5,4 -4,4"/>
<!-- _diagram_info -->
<g id="node1" class="node"><title>_diagram_info</title>
<text text-anchor="start" x="8" y="-679.6" font-family="Times,serif" font-size="13.00">Models diagram</text>
<text text-anchor="start" x="8" y="-665.6" font-family="Times,serif" font-size="13.00">Date: Jun 07 2016 &#45; 13:59</text>
<text text-anchor="start" x="8" y="-651.6" font-family="Times,serif" font-size="13.00">Migration version: 20160524101037</text>
<text text-anchor="start" x="8" y="-637.6" font-family="Times,serif" font-size="13.00">Generated by RailRoady 1.4.2</text>
<text text-anchor="start" x="8" y="-623.6" font-family="Times,serif" font-size="13.00">http://railroady.prestonlee.com</text>
</g>
<!-- Post -->
<g id="node2" class="node"><title>Post</title>
<path fill="none" stroke="black" d="M207.5,-0.5C207.5,-0.5 314.5,-0.5 314.5,-0.5 320.5,-0.5 326.5,-6.5 326.5,-12.5 326.5,-12.5 326.5,-214.5 326.5,-214.5 326.5,-220.5 320.5,-226.5 314.5,-226.5 314.5,-226.5 207.5,-226.5 207.5,-226.5 201.5,-226.5 195.5,-220.5 195.5,-214.5 195.5,-214.5 195.5,-12.5 195.5,-12.5 195.5,-6.5 201.5,-0.5 207.5,-0.5"/>
<text text-anchor="middle" x="261" y="-211.3" font-family="Times,serif" font-size="14.00">Post</text>
<polyline fill="none" stroke="black" points="195.5,-203.5 326.5,-203.5 "/>
<text text-anchor="start" x="203.5" y="-188.3" font-family="Times,serif" font-size="14.00">id :INTEGER</text>
<text text-anchor="start" x="203.5" y="-173.3" font-family="Times,serif" font-size="14.00">pid :integer</text>
<text text-anchor="start" x="203.5" y="-158.3" font-family="Times,serif" font-size="14.00">uid :integer</text>
<text text-anchor="start" x="203.5" y="-143.3" font-family="Times,serif" font-size="14.00">tid :integer</text>
<text text-anchor="start" x="203.5" y="-128.3" font-family="Times,serif" font-size="14.00">content :varchar</text>
<text text-anchor="start" x="203.5" y="-113.3" font-family="Times,serif" font-size="14.00">timestamp :varchar</text>
<text text-anchor="start" x="203.5" y="-98.3" font-family="Times,serif" font-size="14.00">reputation :integer</text>
<text text-anchor="start" x="203.5" y="-83.3" font-family="Times,serif" font-size="14.00">votes :integer</text>
<text text-anchor="start" x="203.5" y="-68.3" font-family="Times,serif" font-size="14.00">edited :varchar</text>
<text text-anchor="start" x="203.5" y="-53.3" font-family="Times,serif" font-size="14.00">deleted :boolean</text>
<text text-anchor="start" x="203.5" y="-38.3" font-family="Times,serif" font-size="14.00">index :integer</text>
<text text-anchor="start" x="203.5" y="-23.3" font-family="Times,serif" font-size="14.00">created_at :datetime</text>
<text text-anchor="start" x="203.5" y="-8.3" font-family="Times,serif" font-size="14.00">updated_at :datetime</text>
</g>
<!-- Topic -->
<g id="node3" class="node"><title>Topic</title>
<path fill="none" stroke="black" d="M249,-263.5C249,-263.5 377,-263.5 377,-263.5 383,-263.5 389,-269.5 389,-275.5 389,-275.5 389,-567.5 389,-567.5 389,-573.5 383,-579.5 377,-579.5 377,-579.5 249,-579.5 249,-579.5 243,-579.5 237,-573.5 237,-567.5 237,-567.5 237,-275.5 237,-275.5 237,-269.5 243,-263.5 249,-263.5"/>
<text text-anchor="middle" x="313" y="-564.3" font-family="Times,serif" font-size="14.00">Topic</text>
<polyline fill="none" stroke="black" points="237,-556.5 389,-556.5 "/>
<text text-anchor="start" x="245" y="-541.3" font-family="Times,serif" font-size="14.00">id :INTEGER</text>
<text text-anchor="start" x="245" y="-526.3" font-family="Times,serif" font-size="14.00">tid :integer</text>
<text text-anchor="start" x="245" y="-511.3" font-family="Times,serif" font-size="14.00">uid :integer</text>
<text text-anchor="start" x="245" y="-496.3" font-family="Times,serif" font-size="14.00">cid :integer</text>
<text text-anchor="start" x="245" y="-481.3" font-family="Times,serif" font-size="14.00">mainPid :integer</text>
<text text-anchor="start" x="245" y="-466.3" font-family="Times,serif" font-size="14.00">title :varchar</text>
<text text-anchor="start" x="245" y="-451.3" font-family="Times,serif" font-size="14.00">slug :varchar</text>
<text text-anchor="start" x="245" y="-436.3" font-family="Times,serif" font-size="14.00">timestamp :varchar</text>
<text text-anchor="start" x="245" y="-421.3" font-family="Times,serif" font-size="14.00">lastposttime :varchar</text>
<text text-anchor="start" x="245" y="-406.3" font-family="Times,serif" font-size="14.00">postcount :integer</text>
<text text-anchor="start" x="245" y="-391.3" font-family="Times,serif" font-size="14.00">viewcount :integer</text>
<text text-anchor="start" x="245" y="-376.3" font-family="Times,serif" font-size="14.00">locked :boolean</text>
<text text-anchor="start" x="245" y="-361.3" font-family="Times,serif" font-size="14.00">pinned :boolean</text>
<text text-anchor="start" x="245" y="-346.3" font-family="Times,serif" font-size="14.00">isQuestion :integer</text>
<text text-anchor="start" x="245" y="-331.3" font-family="Times,serif" font-size="14.00">isSolved :integer</text>
<text text-anchor="start" x="245" y="-316.3" font-family="Times,serif" font-size="14.00">relativeTime :varchar</text>
<text text-anchor="start" x="245" y="-301.3" font-family="Times,serif" font-size="14.00">lastposttimeISO :varchar</text>
<text text-anchor="start" x="245" y="-286.3" font-family="Times,serif" font-size="14.00">created_at :datetime</text>
<text text-anchor="start" x="245" y="-271.3" font-family="Times,serif" font-size="14.00">updated_at :datetime</text>
</g>
<!-- Topic&#45;&gt;Post -->
<g id="edge2" class="edge"><title>Topic&#45;&gt;Post</title>
<path fill="none" stroke="#610040" d="M284.941,-255.385C283.896,-249.232 282.854,-243.104 281.824,-237.043"/>
<ellipse fill="none" stroke="#610040" cx="285.644" cy="-259.523" rx="4.00001" ry="4.00001"/>
<polygon fill="#610040" stroke="#610040" points="281.778,-236.771 284.539,-226.158 280.94,-231.842 280.103,-226.912 280.103,-226.912 280.103,-226.912 280.94,-231.842 275.666,-227.666 281.778,-236.771 281.778,-236.771"/>
</g>
<!-- User -->
<g id="node4" class="node"><title>User</title>
<path fill="none" stroke="black" d="M419.5,-293.5C419.5,-293.5 526.5,-293.5 526.5,-293.5 532.5,-293.5 538.5,-299.5 538.5,-305.5 538.5,-305.5 538.5,-537.5 538.5,-537.5 538.5,-543.5 532.5,-549.5 526.5,-549.5 526.5,-549.5 419.5,-549.5 419.5,-549.5 413.5,-549.5 407.5,-543.5 407.5,-537.5 407.5,-537.5 407.5,-305.5 407.5,-305.5 407.5,-299.5 413.5,-293.5 419.5,-293.5"/>
<text text-anchor="middle" x="473" y="-534.3" font-family="Times,serif" font-size="14.00">User</text>
<polyline fill="none" stroke="black" points="407.5,-526.5 538.5,-526.5 "/>
<text text-anchor="start" x="415.5" y="-511.3" font-family="Times,serif" font-size="14.00">id :INTEGER</text>
<text text-anchor="start" x="415.5" y="-496.3" font-family="Times,serif" font-size="14.00">username :varchar</text>
<text text-anchor="start" x="415.5" y="-481.3" font-family="Times,serif" font-size="14.00">userslug :varchar</text>
<text text-anchor="start" x="415.5" y="-466.3" font-family="Times,serif" font-size="14.00">email :varchar</text>
<text text-anchor="start" x="415.5" y="-451.3" font-family="Times,serif" font-size="14.00">picture :varchar</text>
<text text-anchor="start" x="415.5" y="-436.3" font-family="Times,serif" font-size="14.00">fullname :varchar</text>
<text text-anchor="start" x="415.5" y="-421.3" font-family="Times,serif" font-size="14.00">signature :varchar</text>
<text text-anchor="start" x="415.5" y="-406.3" font-family="Times,serif" font-size="14.00">reputation :integer</text>
<text text-anchor="start" x="415.5" y="-391.3" font-family="Times,serif" font-size="14.00">postcount :integer</text>
<text text-anchor="start" x="415.5" y="-376.3" font-family="Times,serif" font-size="14.00">banned :boolean</text>
<text text-anchor="start" x="415.5" y="-361.3" font-family="Times,serif" font-size="14.00">status :varchar</text>
<text text-anchor="start" x="415.5" y="-346.3" font-family="Times,serif" font-size="14.00">uid :integer</text>
<text text-anchor="start" x="415.5" y="-331.3" font-family="Times,serif" font-size="14.00">lastonline :varchar</text>
<text text-anchor="start" x="415.5" y="-316.3" font-family="Times,serif" font-size="14.00">created_at :datetime</text>
<text text-anchor="start" x="415.5" y="-301.3" font-family="Times,serif" font-size="14.00">updated_at :datetime</text>
</g>
<!-- ActiveRecord::Base -->
<g id="node5" class="node"><title>ActiveRecord::Base</title>
<ellipse fill="none" stroke="black" cx="313" cy="-655" rx="81.4863" ry="18"/>
<text text-anchor="middle" x="313" y="-651.3" font-family="Times,serif" font-size="14.00">ActiveRecord::Base</text>
</g>
<!-- ActiveRecord::Base&#45;&gt;Post -->
<g id="edge1" class="edge"><title>ActiveRecord::Base&#45;&gt;Post</title>
<path fill="none" stroke="black" d="M284.294,-638.089C264.406,-625.289 239.512,-605.286 228,-580 176.889,-467.736 198.244,-324.358 223.948,-226.582"/>
</g>
<!-- ActiveRecord::Base&#45;&gt;Topic -->
<g id="edge3" class="edge"><title>ActiveRecord::Base&#45;&gt;Topic</title>
<path fill="none" stroke="black" d="M313,-636.977C313,-623.351 313,-602.737 313,-579.583"/>
</g>
<!-- ActiveRecord::Base&#45;&gt;User -->
<g id="edge4" class="edge"><title>ActiveRecord::Base&#45;&gt;User</title>
<path fill="none" stroke="black" d="M336.647,-637.636C355.162,-623.906 380.607,-602.906 398,-580 405.143,-570.593 411.85,-560.397 418.089,-549.871"/>
</g>
</g>
</svg>
