<?xml version="1.0" encoding="UTF-8" standalone="no"?>
<!DOCTYPE svg PUBLIC "-//W3C//DTD SVG 1.1//EN"
 "http://www.w3.org/Graphics/SVG/1.1/DTD/svg11.dtd">
<!-- Generated by graphviz version 2.38.0 (20140413.2041)
 -->
<!-- Title: models_diagram Pages: 1 -->
<svg width="424pt" height="230pt"
 viewBox="0.00 0.00 424.30 230.00" xmlns="http://www.w3.org/2000/svg" xmlns:xlink="http://www.w3.org/1999/xlink">
<g id="graph0" class="graph" transform="scale(1 1) rotate(0) translate(4 226)">
<title>models_diagram</title>
<polygon fill="none" stroke="none" points="-4,4 -4,-226 420.298,-226 420.298,4 -4,4"/>
<!-- _diagram_info -->
<g id="node1" class="node"><title>_diagram_info</title>
<text text-anchor="start" x="8" y="-207.6" font-family="Times,serif" font-size="13.00">Models diagram</text>
<text text-anchor="start" x="8" y="-193.6" font-family="Times,serif" font-size="13.00">Date: Jun 07 2016 &#45; 13:59</text>
<text text-anchor="start" x="8" y="-179.6" font-family="Times,serif" font-size="13.00">Migration version: 20160524101037</text>
<text text-anchor="start" x="8" y="-165.6" font-family="Times,serif" font-size="13.00">Generated by RailRoady 1.4.2</text>
<text text-anchor="start" x="8" y="-151.6" font-family="Times,serif" font-size="13.00">http://railroady.prestonlee.com</text>
</g>
<!-- Post -->
<g id="node2" class="node"><title>Post</title>
<ellipse fill="none" stroke="black" cx="283" cy="-18" rx="27" ry="18"/>
<text text-anchor="middle" x="283" y="-14.3" font-family="Times,serif" font-size="14.00">Post</text>
</g>
<!-- Topic -->
<g id="node3" class="node"><title>Topic</title>
<ellipse fill="none" stroke="black" cx="313" cy="-90" rx="31.3957" ry="18"/>
<text text-anchor="middle" x="313" y="-86.3" font-family="Times,serif" font-size="14.00">Topic</text>
</g>
<!-- Topic&#45;&gt;Post -->
<g id="edge2" class="edge"><title>Topic&#45;&gt;Post</title>
<path fill="none" stroke="#b0a831" d="M302.693,-64.9496C299.894,-58.4184 296.852,-51.3217 294.016,-44.7031"/>
<ellipse fill="none" stroke="#b0a831" cx="304.315" cy="-68.7344" rx="4.00002" ry="4.00002"/>
<polygon fill="#b0a831" stroke="#b0a831" points="293.998,-44.6614 294.195,-33.6973 292.028,-40.0657 290.059,-35.4699 290.059,-35.4699 290.059,-35.4699 292.028,-40.0657 285.922,-37.2426 293.998,-44.6614 293.998,-44.6614"/>
</g>
<!-- User -->
<g id="node4" class="node"><title>User</title>
<ellipse fill="none" stroke="black" cx="389" cy="-90" rx="27.0966" ry="18"/>
<text text-anchor="middle" x="389" y="-86.3" font-family="Times,serif" font-size="14.00">User</text>
</g>
<!-- ActiveRecord::Base -->
<g id="node5" class="node"><title>ActiveRecord::Base</title>
<ellipse fill="none" stroke="black" cx="313" cy="-183" rx="81.4863" ry="18"/>
<text text-anchor="middle" x="313" y="-179.3" font-family="Times,serif" font-size="14.00">ActiveRecord::Base</text>
</g>
<!-- ActiveRecord::Base&#45;&gt;Post -->
<g id="edge1" class="edge"><title>ActiveRecord::Base&#45;&gt;Post</title>
<path fill="none" stroke="black" d="M300.675,-165.08C291.011,-150.703 278.337,-129.095 273,-108 266.746,-83.279 272.609,-53.7062 277.631,-35.6434"/>
</g>
<!-- ActiveRecord::Base&#45;&gt;Topic -->
<g id="edge3" class="edge"><title>ActiveRecord::Base&#45;&gt;Topic</title>
<path fill="none" stroke="black" d="M313,-164.884C313,-148.614 313,-124.284 313,-108.04"/>
</g>
<!-- ActiveRecord::Base&#45;&gt;User -->
<g id="edge4" class="edge"><title>ActiveRecord::Base&#45;&gt;User</title>
<path fill="none" stroke="black" d="M327.295,-164.884C341.399,-147.996 362.756,-122.424 376.285,-106.225"/>
</g>
</g>
</svg>
