<?xml version="1.0" encoding="UTF-8" standalone="no"?>
<!DOCTYPE svg PUBLIC "-//W3C//DTD SVG 1.1//EN"
 "http://www.w3.org/Graphics/SVG/1.1/DTD/svg11.dtd">
<!-- Generated by graphviz version 2.38.0 (20140413.2041)
 -->
<!-- Title: models_diagram Pages: 1 -->
<svg width="849pt" height="230pt"
 viewBox="0.00 0.00 849.24 230.00" xmlns="http://www.w3.org/2000/svg" xmlns:xlink="http://www.w3.org/1999/xlink">
<g id="graph0" class="graph" transform="scale(1 1) rotate(0) translate(4 226)">
<title>models_diagram</title>
<polygon fill="none" stroke="none" points="-4,4 -4,-226 845.243,-226 845.243,4 -4,4"/>
<!-- _diagram_info -->
<g id="node1" class="node"><title>_diagram_info</title>
<text text-anchor="start" x="8" y="-207.6" font-family="Times,serif" font-size="13.00">Models diagram</text>
<text text-anchor="start" x="8" y="-193.6" font-family="Times,serif" font-size="13.00">Date: Jun 22 2016 &#45; 13:23</text>
<text text-anchor="start" x="8" y="-179.6" font-family="Times,serif" font-size="13.00">Migration version: 20160616072144</text>
<text text-anchor="start" x="8" y="-165.6" font-family="Times,serif" font-size="13.00">Generated by RailRoady 1.4.2</text>
<text text-anchor="start" x="8" y="-151.6" font-family="Times,serif" font-size="13.00">http://railroady.prestonlee.com</text>
</g>
<!-- Post -->
<g id="node2" class="node"><title>Post</title>
<ellipse fill="none" stroke="black" cx="263" cy="-90" rx="27" ry="18"/>
<text text-anchor="middle" x="263" y="-86.3" font-family="Times,serif" font-size="14.00">Post</text>
</g>
<!-- Repository -->
<g id="node3" class="node"><title>Repository</title>
<ellipse fill="none" stroke="black" cx="362" cy="-183" rx="49.2915" ry="18"/>
<text text-anchor="middle" x="362" y="-179.3" font-family="Times,serif" font-size="14.00">Repository</text>
</g>
<!-- Commit -->
<g id="node6" class="node"><title>Commit</title>
<ellipse fill="none" stroke="black" cx="370" cy="-90" rx="40.0939" ry="18"/>
<text text-anchor="middle" x="370" y="-86.3" font-family="Times,serif" font-size="14.00">Commit</text>
</g>
<!-- Repository&#45;&gt;Commit -->
<g id="edge1" class="edge"><title>Repository&#45;&gt;Commit</title>
<path fill="none" stroke="#b84ce0" d="M364.222,-156.729C365.277,-144.725 366.54,-130.362 367.615,-118.129"/>
<ellipse fill="none" stroke="#b84ce0" cx="363.855" cy="-160.899" rx="4" ry="4"/>
<polygon fill="#b84ce0" stroke="#b84ce0" points="367.626,-118.001 372.985,-108.434 368.064,-113.02 368.502,-108.04 368.502,-108.04 368.502,-108.04 368.064,-113.02 364.019,-107.646 367.626,-118.001 367.626,-118.001"/>
</g>
<!-- GerritCodeReview -->
<g id="node4" class="node"><title>GerritCodeReview</title>
<ellipse fill="none" stroke="black" cx="440" cy="-18" rx="77.1866" ry="18"/>
<text text-anchor="middle" x="440" y="-14.3" font-family="Times,serif" font-size="14.00">GerritCodeReview</text>
</g>
<!-- Topic -->
<g id="node5" class="node"><title>Topic</title>
<ellipse fill="none" stroke="black" cx="263" cy="-183" rx="31.3957" ry="18"/>
<text text-anchor="middle" x="263" y="-179.3" font-family="Times,serif" font-size="14.00">Topic</text>
</g>
<!-- Topic&#45;&gt;Post -->
<g id="edge2" class="edge"><title>Topic&#45;&gt;Post</title>
<path fill="none" stroke="#4a2212" d="M263,-156.729C263,-144.725 263,-130.362 263,-118.129"/>
<ellipse fill="none" stroke="#4a2212" cx="263" cy="-160.884" rx="4" ry="4"/>
<polygon fill="#4a2212" stroke="#4a2212" points="263,-118.04 267.5,-108.04 263,-113.04 263,-108.04 263,-108.04 263,-108.04 263,-113.04 258.5,-108.04 263,-118.04 263,-118.04"/>
</g>
<!-- GerritMessage -->
<g id="node7" class="node"><title>GerritMessage</title>
<ellipse fill="none" stroke="black" cx="598" cy="-18" rx="63.0888" ry="18"/>
<text text-anchor="middle" x="598" y="-14.3" font-family="Times,serif" font-size="14.00">GerritMessage</text>
</g>
<!-- Author -->
<g id="node8" class="node"><title>Author</title>
<ellipse fill="none" stroke="black" cx="465" cy="-183" rx="35.9954" ry="18"/>
<text text-anchor="middle" x="465" y="-179.3" font-family="Times,serif" font-size="14.00">Author</text>
</g>
<!-- Author&#45;&gt;Commit -->
<g id="edge3" class="edge"><title>Author&#45;&gt;Commit</title>
<path fill="none" stroke="#fd7eab" d="M442.811,-160.746C428.047,-146.603 408.674,-128.046 393.624,-113.629"/>
<ellipse fill="none" stroke="#fd7eab" cx="445.996" cy="-163.796" rx="4.00002" ry="4.00002"/>
<polygon fill="#fd7eab" stroke="#fd7eab" points="393.416,-113.43 389.307,-103.263 389.805,-109.971 386.195,-106.513 386.195,-106.513 386.195,-106.513 389.805,-109.971 383.082,-109.762 393.416,-113.43 393.416,-113.43"/>
</g>
<!-- GerritOwner -->
<g id="node9" class="node"><title>GerritOwner</title>
<ellipse fill="none" stroke="black" cx="614" cy="-183" rx="55.7903" ry="18"/>
<text text-anchor="middle" x="614" y="-179.3" font-family="Times,serif" font-size="14.00">GerritOwner</text>
</g>
<!-- GerritOwner&#45;&gt;GerritCodeReview -->
<g id="edge5" class="edge"><title>GerritOwner&#45;&gt;GerritCodeReview</title>
<path fill="none" stroke="#33de3a" d="M577.866,-163.538C554.013,-150.213 523.03,-130.632 500,-108 481.126,-89.4516 464.729,-64.0951 453.868,-45.1912"/>
<ellipse fill="none" stroke="#33de3a" cx="581.517" cy="-165.544" rx="4.00002" ry="4.00002"/>
<polygon fill="#33de3a" stroke="#33de3a" points="453.735,-44.9533 452.78,-34.0291 451.294,-40.5898 448.852,-36.2263 448.852,-36.2263 448.852,-36.2263 451.294,-40.5898 444.925,-38.4235 453.735,-44.9533 453.735,-44.9533"/>
</g>
<!-- GerritOwner&#45;&gt;GerritMessage -->
<g id="edge7" class="edge"><title>GerritOwner&#45;&gt;GerritMessage</title>
<path fill="none" stroke="#c39bcf" d="M625.053,-157.465C633.675,-134.907 642.829,-100.711 634,-72 630.943,-62.0574 625.315,-52.3065 619.403,-43.9338"/>
<ellipse fill="none" stroke="#c39bcf" cx="623.547" cy="-161.219" rx="4.00001" ry="4.00001"/>
<polygon fill="#c39bcf" stroke="#c39bcf" points="619.257,-43.7406 616.827,-33.0473 616.246,-39.749 613.235,-35.7574 613.235,-35.7574 613.235,-35.7574 616.246,-39.749 609.642,-38.4675 619.257,-43.7406 619.257,-43.7406"/>
</g>
<!-- GerritChange -->
<g id="node10" class="node"><title>GerritChange</title>
<ellipse fill="none" stroke="black" cx="567" cy="-90" rx="58.4896" ry="18"/>
<text text-anchor="middle" x="567" y="-86.3" font-family="Times,serif" font-size="14.00">GerritChange</text>
</g>
<!-- GerritOwner&#45;&gt;GerritChange -->
<g id="edge6" class="edge"><title>GerritOwner&#45;&gt;GerritChange</title>
<path fill="none" stroke="#ed7df7" d="M601.391,-157.587C594.948,-145.111 587.102,-129.92 580.532,-117.2"/>
<ellipse fill="none" stroke="#ed7df7" cx="603.324" cy="-161.33" rx="4.00002" ry="4.00002"/>
<polygon fill="#ed7df7" stroke="#ed7df7" points="580.39,-116.925 579.799,-105.975 578.095,-112.482 575.801,-108.04 575.801,-108.04 575.801,-108.04 578.095,-112.482 571.802,-110.105 580.39,-116.925 580.39,-116.925"/>
</g>
<!-- GerritSanityReview -->
<g id="node12" class="node"><title>GerritSanityReview</title>
<ellipse fill="none" stroke="black" cx="760" cy="-18" rx="81.4863" ry="18"/>
<text text-anchor="middle" x="760" y="-14.3" font-family="Times,serif" font-size="14.00">GerritSanityReview</text>
</g>
<!-- GerritOwner&#45;&gt;GerritSanityReview -->
<g id="edge4" class="edge"><title>GerritOwner&#45;&gt;GerritSanityReview</title>
<path fill="none" stroke="#67a097" d="M634.382,-159.244C661.688,-128.759 709.952,-74.8756 738.039,-43.5181"/>
<ellipse fill="none" stroke="#67a097" cx="631.472" cy="-162.494" rx="4.00002" ry="4.00002"/>
<polygon fill="#67a097" stroke="#67a097" points="738.048,-43.508 748.072,-39.0615 741.384,-39.7835 744.72,-36.0591 744.72,-36.0591 744.72,-36.0591 741.384,-39.7835 741.368,-33.0567 738.048,-43.508 738.048,-43.508"/>
</g>
<!-- GerritChange&#45;&gt;GerritCodeReview -->
<g id="edge10" class="edge"><title>GerritChange&#45;&gt;GerritCodeReview</title>
<path fill="none" stroke="#dc2c8e" d="M532.654,-70.0693C515.683,-60.715 495.163,-49.4048 477.752,-39.8082"/>
<ellipse fill="none" stroke="#dc2c8e" cx="536.252" cy="-72.0524" rx="4.00002" ry="4.00002"/>
<polygon fill="#dc2c8e" stroke="#dc2c8e" points="477.724,-39.7927 471.138,-31.0245 473.345,-37.3791 468.966,-34.9655 468.966,-34.9655 468.966,-34.9655 473.345,-37.3791 466.794,-38.9065 477.724,-39.7927 477.724,-39.7927"/>
</g>
<!-- GerritChange&#45;&gt;GerritMessage -->
<g id="edge8" class="edge"><title>GerritChange&#45;&gt;GerritMessage</title>
<path fill="none" stroke="#8aab71" d="M577.829,-64.5475C580.539,-58.4284 583.459,-51.8347 586.213,-45.6163"/>
<ellipse fill="none" stroke="#8aab71" cx="576.124" cy="-68.3976" rx="4.00002" ry="4.00002"/>
<polygon fill="#8aab71" stroke="#8aab71" points="586.3,-45.4188 594.464,-38.0975 588.325,-40.8471 590.35,-36.2753 590.35,-36.2753 590.35,-36.2753 588.325,-40.8471 586.235,-34.4531 586.3,-45.4188 586.3,-45.4188"/>
</g>
<!-- GerritChange&#45;&gt;GerritSanityReview -->
<g id="edge9" class="edge"><title>GerritChange&#45;&gt;GerritSanityReview</title>
<path fill="none" stroke="#6948e2" d="M610.916,-73.0719C640.365,-62.3908 679.22,-48.2983 709.88,-37.1782"/>
<ellipse fill="none" stroke="#6948e2" cx="607.062" cy="-74.4697" rx="4.00001" ry="4.00001"/>
<polygon fill="#6948e2" stroke="#6948e2" points="710.124,-37.09 721.059,-37.9106 714.824,-35.3851 719.524,-33.6803 719.524,-33.6803 719.524,-33.6803 714.824,-35.3851 717.99,-29.4499 710.124,-37.09 710.124,-37.09"/>
</g>
<!-- User -->
<g id="node11" class="node"><title>User</title>
<ellipse fill="none" stroke="black" cx="715" cy="-183" rx="27.0966" ry="18"/>
<text text-anchor="middle" x="715" y="-179.3" font-family="Times,serif" font-size="14.00">User</text>
</g>
</g>
</svg>
